<?xml version="1.0" encoding="utf-8"?>
<!-- Generator: Adobe Illustrator 17.1.0, SVG Export Plug-In . SVG Version: 6.00 Build 0)  -->
<!DOCTYPE svg PUBLIC "-//W3C//DTD SVG 1.1//EN" "http://www.w3.org/Graphics/SVG/1.1/DTD/svg11.dtd">
<svg version="1.1" id="social_x5F_media_x5F_icons_1_"
	 xmlns="http://www.w3.org/2000/svg" xmlns:xlink="http://www.w3.org/1999/xlink" x="0px" y="0px" width="405px" height="70px"
	 viewBox="0 0 405 70" enable-background="new 0 0 405 70" xml:space="preserve">
<symbol  id="facebook_x5F_30x30_x5F_default" viewBox="-15 -15 30 30">
	<path fill="#3B5998" d="M15,0c0-8.284-6.716-15-15-15S-15-8.284-15,0s6.716,15,15,15S15,8.284,15,0z"/>
	<path fill="#FFFFFF" d="M1-8v7h2l1,3H1v1.214C1,4.189,1.261,5,2.607,5H4v2.867C3.703,7.908,3.396,8,2.211,8
		C-0.266,8-2,6.43-2,3.548V2h-2v-3h2v-7H1z"/>
</symbol>
<symbol  id="facebook_x5F_30x30_x5F_hover" viewBox="-15 -15 30 30">
	<path fill="#9DACCB" d="M15,0c0-8.284-6.716-15-15-15S-15-8.284-15,0s6.716,15,15,15S15,8.284,15,0z"/>
	<path fill="#FFFFFF" d="M1-8v7h2l1,3H1v1.214C1,4.189,1.261,5,2.607,5H4v2.867C3.703,7.908,3.396,8,2.211,8
		C-0.266,8-2,6.43-2,3.548V2h-2v-3h2v-7H1z"/>
</symbol>
<symbol  id="instagram_x5F_30x30_x5F_default" viewBox="-15 -15 30 30">
	
		<radialGradient id="SVGID_1_" cx="8184.9683" cy="3397.6887" r="29.6001" gradientTransform="matrix(0.7071 0.7071 -0.7071 0.7071 -3392.3865 -8207.3877)" gradientUnits="userSpaceOnUse">
		<stop  offset="0" style="stop-color:#FFDD55"/>
		<stop  offset="0.1" style="stop-color:#FFDD55"/>
		<stop  offset="0.5" style="stop-color:#FF543E"/>
		<stop  offset="1" style="stop-color:#C837AB"/>
	</radialGradient>
	<path fill="url(#SVGID_1_)" d="M10.607,10.607c5.858-5.858,5.858-15.355,0-21.213s-15.355-5.858-21.213,0s-5.858,15.355,0,21.213
		S4.749,16.464,10.607,10.607z"/>
	<linearGradient id="SVGID_2_" gradientUnits="userSpaceOnUse" x1="-5.1317" y1="14.0992" x2="5.1317" y2="-14.0992">
		<stop  offset="0" style="stop-color:#3771C8"/>
		<stop  offset="0" style="stop-color:#3771C8"/>
		<stop  offset="0.35" style="stop-color:#6600FF;stop-opacity:0"/>
	</linearGradient>
	<path opacity="0.8" fill="url(#SVGID_2_)" d="M15,0c0-8.284-6.716-15-15-15S-15-8.284-15,0s6.716,15,15,15S15,8.284,15,0z"/>
	<path fill="#FFFFFF" d="M0,7.378c2.403,0,2.688-0.009,3.637-0.052c0.877-0.04,1.354-0.187,1.671-0.31
		c0.42-0.163,0.72-0.358,1.035-0.673c0.315-0.315,0.51-0.615,0.673-1.035c0.123-0.317,0.27-0.794,0.31-1.671
		C7.369,2.688,7.378,2.403,7.378,0S7.369-2.688,7.326-3.637c-0.04-0.877-0.187-1.354-0.31-1.671c-0.163-0.42-0.358-0.72-0.673-1.035
		c-0.315-0.315-0.615-0.51-1.035-0.673c-0.317-0.123-0.794-0.27-1.671-0.31C2.688-7.369,2.403-7.378,0-7.378
		s-2.688,0.009-3.637,0.052c-0.877,0.04-1.354,0.187-1.671,0.31c-0.42,0.163-0.72,0.358-1.035,0.673
		c-0.315,0.315-0.51,0.615-0.673,1.035c-0.123,0.317-0.27,0.794-0.31,1.671C-7.369-2.688-7.378-2.403-7.378,0
		s0.009,2.688,0.052,3.637c0.04,0.877,0.187,1.354,0.31,1.671c0.163,0.42,0.358,0.72,0.673,1.035
		c0.315,0.315,0.615,0.51,1.035,0.673c0.317,0.123,0.794,0.27,1.671,0.31C-2.688,7.369-2.403,7.378,0,7.378 M0,9
		c-2.444,0-2.751-0.01-3.711-0.054C-4.669,8.902-5.323,8.75-5.895,8.528c-0.592-0.23-1.094-0.538-1.594-1.038
		c-0.5-0.5-0.808-1.002-1.038-1.594C-8.75,5.323-8.902,4.669-8.946,3.711C-8.99,2.751-9,2.444-9,0c0-2.444,0.01-2.751,0.054-3.711
		c0.044-0.958,0.196-1.612,0.418-2.185c0.23-0.592,0.538-1.094,1.038-1.594c0.5-0.5,1.002-0.808,1.594-1.038
		c0.572-0.222,1.227-0.375,2.185-0.418C-2.751-8.99-2.444-9,0-9s2.751,0.01,3.711,0.054C4.669-8.902,5.323-8.75,5.895-8.528
		c0.592,0.23,1.094,0.538,1.594,1.038c0.5,0.5,0.808,1.002,1.038,1.594C8.75-5.323,8.902-4.669,8.946-3.711C8.99-2.751,9-2.444,9,0
		S8.99,2.751,8.946,3.711C8.902,4.669,8.75,5.323,8.528,5.895C8.298,6.487,7.99,6.989,7.489,7.489c-0.5,0.5-1.002,0.808-1.594,1.038
		C5.323,8.75,4.669,8.902,3.711,8.946C2.751,8.99,2.444,9,0,9L0,9z M0,4.622c-2.552,0-4.622-2.069-4.622-4.622S-2.552-4.622,0-4.622
		S4.622-2.552,4.622,0S2.552,4.622,0,4.622z M0-3c-1.657,0-3,1.343-3,3c0,1.657,1.343,3,3,3c1.657,0,3-1.343,3-3
		C3-1.657,1.657-3,0-3z M4.804,5.884c-0.596,0-1.08-0.484-1.08-1.08s0.484-1.08,1.08-1.08s1.08,0.484,1.08,1.08
		S5.401,5.884,4.804,5.884z"/>
</symbol>
<symbol  id="instagram_x5F_30x30_x5F_hover" viewBox="-15 -15 30 30">
	
		<radialGradient id="SVGID_3_" cx="8184.9683" cy="3397.6887" r="29.6001" gradientTransform="matrix(0.7071 0.7071 -0.7071 0.7071 -3392.3865 -8207.3877)" gradientUnits="userSpaceOnUse">
		<stop  offset="0" style="stop-color:#FFDD55"/>
		<stop  offset="0.1" style="stop-color:#FFDD55"/>
		<stop  offset="0.5" style="stop-color:#FF543E"/>
		<stop  offset="1" style="stop-color:#C837AB"/>
	</radialGradient>
	<path fill="url(#SVGID_3_)" d="M10.607,10.607c5.858-5.858,5.858-15.355,0-21.213s-15.355-5.858-21.213,0s-5.858,15.355,0,21.213
		S4.749,16.464,10.607,10.607z"/>
	<linearGradient id="SVGID_4_" gradientUnits="userSpaceOnUse" x1="-5.1317" y1="14.0992" x2="5.1317" y2="-14.0992">
		<stop  offset="0" style="stop-color:#3771C8"/>
		<stop  offset="0" style="stop-color:#3771C8"/>
		<stop  offset="0.35" style="stop-color:#6600FF;stop-opacity:0"/>
	</linearGradient>
	<path opacity="0.8" fill="url(#SVGID_4_)" d="M15,0c0-8.284-6.716-15-15-15S-15-8.284-15,0s6.716,15,15,15S15,8.284,15,0z"/>
	<path fill="#FFFFFF" d="M0,7.378c2.403,0,2.688-0.009,3.637-0.052c0.877-0.04,1.354-0.187,1.671-0.31
		c0.42-0.163,0.72-0.358,1.035-0.673c0.315-0.315,0.51-0.615,0.673-1.035c0.123-0.317,0.27-0.794,0.31-1.671
		C7.369,2.688,7.378,2.403,7.378,0S7.369-2.688,7.326-3.637c-0.04-0.877-0.187-1.354-0.31-1.671c-0.163-0.42-0.358-0.72-0.673-1.035
		c-0.315-0.315-0.615-0.51-1.035-0.673c-0.317-0.123-0.794-0.27-1.671-0.31C2.688-7.369,2.403-7.378,0-7.378
		s-2.688,0.009-3.637,0.052c-0.877,0.04-1.354,0.187-1.671,0.31c-0.42,0.163-0.72,0.358-1.035,0.673
		c-0.315,0.315-0.51,0.615-0.673,1.035c-0.123,0.317-0.27,0.794-0.31,1.671C-7.369-2.688-7.378-2.403-7.378,0
		s0.009,2.688,0.052,3.637c0.04,0.877,0.187,1.354,0.31,1.671c0.163,0.42,0.358,0.72,0.673,1.035
		c0.315,0.315,0.615,0.51,1.035,0.673c0.317,0.123,0.794,0.27,1.671,0.31C-2.688,7.369-2.403,7.378,0,7.378 M0,9
		c-2.444,0-2.751-0.01-3.711-0.054C-4.669,8.902-5.323,8.75-5.895,8.528c-0.592-0.23-1.094-0.538-1.594-1.038
		c-0.5-0.5-0.808-1.002-1.038-1.594C-8.75,5.323-8.902,4.669-8.946,3.711C-8.99,2.751-9,2.444-9,0c0-2.444,0.01-2.751,0.054-3.711
		c0.044-0.958,0.196-1.612,0.418-2.185c0.23-0.592,0.538-1.094,1.038-1.594c0.5-0.5,1.002-0.808,1.594-1.038
		c0.572-0.222,1.227-0.375,2.185-0.418C-2.751-8.99-2.444-9,0-9s2.751,0.01,3.711,0.054C4.669-8.902,5.323-8.75,5.895-8.528
		c0.592,0.23,1.094,0.538,1.594,1.038c0.5,0.5,0.808,1.002,1.038,1.594C8.75-5.323,8.902-4.669,8.946-3.711C8.99-2.751,9-2.444,9,0
		S8.99,2.751,8.946,3.711C8.902,4.669,8.75,5.323,8.528,5.895C8.298,6.487,7.99,6.989,7.489,7.489c-0.5,0.5-1.002,0.808-1.594,1.038
		C5.323,8.75,4.669,8.902,3.711,8.946C2.751,8.99,2.444,9,0,9L0,9z M0,4.622c-2.552,0-4.622-2.069-4.622-4.622S-2.552-4.622,0-4.622
		S4.622-2.552,4.622,0S2.552,4.622,0,4.622z M0-3c-1.657,0-3,1.343-3,3c0,1.657,1.343,3,3,3c1.657,0,3-1.343,3-3
		C3-1.657,1.657-3,0-3z M4.804,5.884c-0.596,0-1.08-0.484-1.08-1.08s0.484-1.08,1.08-1.08s1.08,0.484,1.08,1.08
		S5.401,5.884,4.804,5.884z"/>
	<path id="overlay_3_" opacity="0.5" fill="#FFFFFF" d="M15,0c0-8.284-6.716-15-15-15S-15-8.284-15,0s6.716,15,15,15S15,8.284,15,0z
		"/>
</symbol>
<symbol  id="telegram_x5F_30x30_x5F_default" viewBox="-15 -15 30 30">
	<path fill="#2DA5E1" d="M0,15c-8.283,0-15-6.715-15-15c0-8.284,6.717-15,15-15c8.284,0,15,6.716,15,15C15,8.285,8.284,15,0,15z"/>
	<path fill="#FFFFFF" d="M6.804,6.741C6.648,6.873,6.432,6.91,6.24,6.84C3.27,5.74-5.877,2.308-9.616,0.925
		C-9.853,0.837-10.007,0.61-10,0.358c0.008-0.25,0.177-0.468,0.42-0.54c1.677-0.502,3.877-1.2,3.877-1.2s1.028-3.106,1.564-4.685
		c0.068-0.199,0.223-0.355,0.427-0.408c0.205-0.053,0.423,0.002,0.576,0.147c0.861,0.812,2.192,2.069,2.192,2.069
		s2.531-1.854,3.966-2.877C3.25-7.296,3.544-7.336,3.806-7.238c0.261,0.1,0.454,0.324,0.512,0.596
		C4.935-3.75,6.428,3.573,6.988,6.203C7.03,6.402,6.96,6.608,6.804,6.741z M3.891,4.079c-2.62-2.362-7.214-6.506-7.214-6.506
		l-0.265-2.484l-1.19,3.923c0,0,5.39,3.441,8.426,5.379c0.086,0.056,0.203,0.036,0.266-0.045C3.978,4.265,3.968,4.148,3.891,4.079z"
		/>
</symbol>
<symbol  id="telegram_x5F_30x30_x5F_hover" viewBox="-15 -15 30 30">
	<path fill="#96D2F0" d="M0,15c-8.283,0-15-6.715-15-15c0-8.284,6.717-15,15-15c8.284,0,15,6.716,15,15C15,8.285,8.284,15,0,15z"/>
	<path fill="#FFFFFF" d="M6.804,6.741C6.648,6.873,6.432,6.91,6.24,6.84C3.27,5.74-5.877,2.308-9.616,0.925
		C-9.853,0.837-10.007,0.61-10,0.358c0.008-0.25,0.177-0.468,0.42-0.54c1.677-0.502,3.877-1.2,3.877-1.2s1.028-3.106,1.564-4.685
		c0.068-0.199,0.223-0.355,0.427-0.408c0.205-0.053,0.423,0.002,0.576,0.147c0.861,0.812,2.192,2.069,2.192,2.069
		s2.531-1.854,3.966-2.877C3.25-7.296,3.544-7.336,3.806-7.238c0.261,0.1,0.454,0.324,0.512,0.596
		C4.935-3.75,6.428,3.573,6.988,6.203C7.03,6.402,6.96,6.608,6.804,6.741z M3.891,4.079c-2.62-2.362-7.214-6.506-7.214-6.506
		l-0.265-2.484l-1.19,3.923c0,0,5.39,3.441,8.426,5.379c0.086,0.056,0.203,0.036,0.266-0.045C3.978,4.265,3.968,4.148,3.891,4.079z"
		/>
</symbol>
<symbol  id="twitter_x5F_30x30_x5F_default" viewBox="-15 -15 30 30">
	<path fill="#1DA1F2" d="M15,0c0-8.284-6.716-15-15-15S-15-8.284-15,0s6.716,15,15,15S15,8.284,15,0z"/>
	<path fill="#FFFFFF" d="M8,4.464C7.411,4.203,6.778,4.026,6.114,3.947c0.678,0.406,1.198,1.049,1.444,1.816
		C6.924,5.387,6.221,5.114,5.474,4.967C4.875,5.605,4.022,6.003,3.077,6.003c-1.813,0-3.283-1.47-3.283-3.283
		c0-0.257,0.029-0.508,0.085-0.748c-2.728,0.137-5.147,1.444-6.766,3.43c-0.283-0.485-0.445-1.049-0.445-1.651
		c0-1.139,0.58-2.144,1.46-2.732c-0.538,0.017-1.044,0.165-1.487,0.411c0-0.014,0-0.028,0-0.042c0-1.591,1.132-2.917,2.633-3.218
		C-4.999-1.905-5.29-1.945-5.589-1.945c-0.212,0-0.417,0.021-0.618,0.059c0.418-1.304,1.63-2.253,3.067-2.279
		c-1.124-0.881-2.539-1.405-4.077-1.405c-0.265,0-0.526,0.015-0.783,0.046C-6.548-6.457-4.822-7-2.968-7
		c6.038,0,9.34,5.002,9.34,9.34c0,0.142-0.003,0.284-0.01,0.424C7.004,3.228,7.56,3.806,8,4.464L8,4.464z"/>
</symbol>
<symbol  id="twitter_x5F_30x30_x5F_hover" viewBox="-15 -15 30 30">
	<path fill="#8ED0F8" d="M15,0c0-8.284-6.716-15-15-15S-15-8.284-15,0s6.716,15,15,15S15,8.284,15,0z"/>
	<path fill="#FFFFFF" d="M8,4.464C7.411,4.203,6.778,4.026,6.114,3.947c0.678,0.406,1.198,1.049,1.444,1.816
		C6.924,5.387,6.221,5.114,5.474,4.967C4.875,5.605,4.022,6.003,3.077,6.003c-1.813,0-3.283-1.47-3.283-3.283
		c0-0.257,0.029-0.508,0.085-0.748c-2.728,0.137-5.147,1.444-6.766,3.43c-0.283-0.485-0.445-1.049-0.445-1.651
		c0-1.139,0.58-2.144,1.46-2.732c-0.538,0.017-1.044,0.165-1.487,0.411c0-0.014,0-0.028,0-0.042c0-1.591,1.132-2.917,2.633-3.218
		C-4.999-1.905-5.29-1.945-5.589-1.945c-0.212,0-0.417,0.021-0.618,0.059c0.418-1.304,1.63-2.253,3.067-2.279
		c-1.124-0.881-2.539-1.405-4.077-1.405c-0.265,0-0.526,0.015-0.783,0.046C-6.548-6.457-4.822-7-2.968-7
		c6.038,0,9.34,5.002,9.34,9.34c0,0.142-0.003,0.284-0.01,0.424C7.004,3.228,7.56,3.806,8,4.464L8,4.464z"/>
</symbol>
<symbol  id="youtube_x5F_30x30_x5F_default" viewBox="-15 -15 30 30">
	<path fill="#CD201F" d="M15,0c0-8.284-6.716-15-15-15S-15-8.284-15,0s6.716,15,15,15S15,8.284,15,0z"/>
	<path fill="#FFFFFF" d="M7.84,3.173c0,0-0.16,1.12-0.64,1.6c-0.587,0.64-1.28,0.64-1.6,0.693C3.36,5.627,0,5.627,0,5.627
		s-3.36,0-5.6-0.16c-0.32-0.053-1.013-0.053-1.6-0.693c-0.48-0.48-0.64-1.6-0.64-1.6S-8,1.893-8,0.613v-1.227
		c0-1.28,0.16-2.613,0.16-2.613s0.16-1.12,0.64-1.6c0.587-0.64,1.387-0.64,1.76-0.693C-4.16-5.573,0-5.627,0-5.627s3.36,0,5.6,0.16
		c0.32,0.053,1.013,0.053,1.6,0.693c0.48,0.48,0.64,1.6,0.64,1.6S8-1.893,8-0.56v1.173C8,1.893,7.84,3.173,7.84,3.173z M-2-2.5v5
		L3.556,0L-2-2.5z"/>
</symbol>
<symbol  id="youtube_x5F_30x30_x5F_hover" viewBox="-15 -15 30 30">
	<path fill="#E68F8F" d="M15,0c0-8.284-6.716-15-15-15S-15-8.284-15,0s6.716,15,15,15S15,8.284,15,0z"/>
	<path fill="#FFFFFF" d="M7.84,3.173c0,0-0.16,1.12-0.64,1.6c-0.587,0.64-1.28,0.64-1.6,0.693C3.36,5.627,0,5.627,0,5.627
		s-3.36,0-5.6-0.16c-0.32-0.053-1.013-0.053-1.6-0.693c-0.48-0.48-0.64-1.6-0.64-1.6S-8,1.893-8,0.613v-1.227
		c0-1.28,0.16-2.613,0.16-2.613s0.16-1.12,0.64-1.6c0.587-0.64,1.387-0.64,1.76-0.693C-4.16-5.573,0-5.627,0-5.627s3.36,0,5.6,0.16
		c0.32,0.053,1.013,0.053,1.6,0.693c0.48,0.48,0.64,1.6,0.64,1.6S8-1.893,8-0.56v1.173C8,1.893,7.84,3.173,7.84,3.173z M-2-2.5v5
		L3.556,0L-2-2.5z"/>
</symbol>
<g id="subscribe_1_">
	<g id="facebook_x5F_30x30">
		
			<use xlink:href="#facebook_x5F_30x30_x5F_default"  width="30" height="30" x="-15" y="-15" transform="matrix(1 0 0 -1 19 19)" overflow="visible"/>
		
			<use xlink:href="#facebook_x5F_30x30_x5F_hover"  width="30" height="30" x="-15" y="-15" transform="matrix(1 0 0 -1 19 51)" overflow="visible"/>
	</g>
	<g id="instagram_x5F_30x30">
		
			<use xlink:href="#instagram_x5F_30x30_x5F_default"  width="30" height="30" x="-15" y="-15" transform="matrix(1 0 0 -1 51 19)" overflow="visible"/>
		
			<use xlink:href="#instagram_x5F_30x30_x5F_hover"  width="30" height="30" x="-15" y="-15" transform="matrix(1 0 0 -1 51 51)" overflow="visible"/>
	</g>
	<g id="twitter_x5F_30x30_1_">
		
			<use xlink:href="#twitter_x5F_30x30_x5F_default"  width="30" height="30" x="-15" y="-15" transform="matrix(1 0 0 -1 83 19)" overflow="visible"/>
		
			<use xlink:href="#twitter_x5F_30x30_x5F_hover"  width="30" height="30" x="-15" y="-15" transform="matrix(1 0 0 -1 83 51)" overflow="visible"/>
	</g>
	<g id="youtube_x5F_30x30_2_">
		
			<use xlink:href="#youtube_x5F_30x30_x5F_default"  width="30" height="30" x="-15" y="-15" transform="matrix(1 0 0 -1 115 19)" overflow="visible"/>
		
			<use xlink:href="#youtube_x5F_30x30_x5F_hover"  width="30" height="30" x="-15" y="-15" transform="matrix(1 0 0 -1 115 51)" overflow="visible"/>
	</g>
	<g id="telegram_x5F_30x30">
		
			<use xlink:href="#telegram_x5F_30x30_x5F_default"  width="30" height="30" x="-15" y="-15" transform="matrix(1 0 0 -1 147 19)" overflow="visible"/>
		
			<use xlink:href="#telegram_x5F_30x30_x5F_hover"  width="30" height="30" x="-15" y="-15" transform="matrix(1 0 0 -1 147 51)" overflow="visible"/>
	</g>
</g>
</svg>
